<svg width="20" height="21" viewBox="0 0 20 21" fill="none" xmlns="http://www.w3.org/2000/svg">
<g clip-path="url(#clip0_1_593)">
<path d="M10 20.97C15.5228 20.97 20 16.4928 20 10.97C20 5.44712 15.5228 0.969971 10 0.969971C4.47715 0.969971 0 5.44712 0 10.97C0 16.4928 4.47715 20.97 10 20.97Z" fill="white"/>
<path d="M8.30312 11.7181C8.70802 11.7181 9.03625 11.3898 9.03625 10.985C9.03625 10.5801 8.70802 10.2518 8.30312 10.2518C7.89823 10.2518 7.57 10.5801 7.57 10.985C7.57 11.3898 7.89823 11.7181 8.30312 11.7181Z" fill="black"/>
<path d="M11.6969 11.7181C12.1018 11.7181 12.43 11.3898 12.43 10.985C12.43 10.5801 12.1018 10.2518 11.6969 10.2518C11.292 10.2518 10.9638 10.5801 10.9638 10.985C10.9638 11.3898 11.292 11.7181 11.6969 11.7181Z" fill="black"/>
<path d="M9.15156 13.1872C9.55645 13.1872 9.88468 12.859 9.88468 12.4541C9.88468 12.0492 9.55645 11.7209 9.15156 11.7209C8.74667 11.7209 8.41843 12.0492 8.41843 12.4541C8.41843 12.859 8.74667 13.1872 9.15156 13.1872Z" fill="black"/>
<path d="M10.8484 10.2491C11.2533 10.2491 11.5816 9.92086 11.5816 9.51596C11.5816 9.11107 11.2533 8.78284 10.8484 8.78284C10.4435 8.78284 10.1153 9.11107 10.1153 9.51596C10.1153 9.92086 10.4435 10.2491 10.8484 10.2491Z" fill="black"/>
<path d="M10.8484 13.1872C11.2533 13.1872 11.5816 12.859 11.5816 12.4541C11.5816 12.0492 11.2533 11.7209 10.8484 11.7209C10.4435 11.7209 10.1153 12.0492 10.1153 12.4541C10.1153 12.859 10.4435 13.1872 10.8484 13.1872Z" fill="black"/>
<path d="M9.15156 10.2491C9.55645 10.2491 9.88468 9.92086 9.88468 9.51596C9.88468 9.11107 9.55645 8.78284 9.15156 8.78284C8.74667 8.78284 8.41843 9.11107 8.41843 9.51596C8.41843 9.92086 8.74667 10.2491 9.15156 10.2491Z" fill="black"/>
<path d="M13.7481 11.3844C13.9604 11.3844 14.1325 11.2123 14.1325 11C14.1325 10.7877 13.9604 10.6156 13.7481 10.6156C13.5358 10.6156 13.3637 10.7877 13.3637 11C13.3637 11.2123 13.5358 11.3844 13.7481 11.3844Z" fill="black"/>
<path d="M6.25188 11.3844C6.46416 11.3844 6.63625 11.2123 6.63625 11C6.63625 10.7877 6.46416 10.6156 6.25188 10.6156C6.03959 10.6156 5.8675 10.7877 5.8675 11C5.8675 11.2123 6.03959 11.3844 6.25188 11.3844Z" fill="black"/>
<path d="M4.88875 11.2437C5.02337 11.2437 5.1325 11.1346 5.1325 11C5.1325 10.8654 5.02337 10.7562 4.88875 10.7562C4.75413 10.7562 4.645 10.8654 4.645 11C4.645 11.1346 4.75413 11.2437 4.88875 11.2437Z" fill="black"/>
<path d="M15.1113 11.2437C15.2459 11.2437 15.355 11.1346 15.355 11C15.355 10.8654 15.2459 10.7562 15.1113 10.7562C14.9766 10.7562 14.8675 10.8654 14.8675 11C14.8675 11.1346 14.9766 11.2437 15.1113 11.2437Z" fill="black"/>
<path d="M11.8741 8.13777C12.0863 8.13777 12.2584 7.96568 12.2584 7.75339C12.2584 7.54111 12.0863 7.36902 11.8741 7.36902C11.6618 7.36902 11.4897 7.54111 11.4897 7.75339C11.4897 7.96568 11.6618 8.13777 11.8741 8.13777Z" fill="black"/>
<path d="M8.12594 14.6309C8.33822 14.6309 8.51031 14.4588 8.51031 14.2466C8.51031 14.0343 8.33822 13.8622 8.12594 13.8622C7.91365 13.8622 7.74156 14.0343 7.74156 14.2466C7.74156 14.4588 7.91365 14.6309 8.12594 14.6309Z" fill="black"/>
<path d="M7.44437 15.6696C7.57899 15.6696 7.68812 15.5605 7.68812 15.4259C7.68812 15.2913 7.57899 15.1821 7.44437 15.1821C7.30975 15.1821 7.20062 15.2913 7.20062 15.4259C7.20062 15.5605 7.30975 15.6696 7.44437 15.6696Z" fill="black"/>
<path d="M12.5556 6.81782C12.6902 6.81782 12.7994 6.70869 12.7994 6.57407C12.7994 6.43945 12.6902 6.33032 12.5556 6.33032C12.421 6.33032 12.3119 6.43945 12.3119 6.57407C12.3119 6.70869 12.421 6.81782 12.5556 6.81782Z" fill="black"/>
<path d="M8.12594 8.13777C8.33822 8.13777 8.51031 7.96568 8.51031 7.75339C8.51031 7.54111 8.33822 7.36902 8.12594 7.36902C7.91365 7.36902 7.74156 7.54111 7.74156 7.75339C7.74156 7.96568 7.91365 8.13777 8.12594 8.13777Z" fill="black"/>
<path d="M11.8741 14.6309C12.0863 14.6309 12.2584 14.4588 12.2584 14.2466C12.2584 14.0343 12.0863 13.8622 11.8741 13.8622C11.6618 13.8622 11.4897 14.0343 11.4897 14.2466C11.4897 14.4588 11.6618 14.6309 11.8741 14.6309Z" fill="black"/>
<path d="M12.5556 15.6696C12.6902 15.6696 12.7994 15.5605 12.7994 15.4259C12.7994 15.2913 12.6902 15.1821 12.5556 15.1821C12.421 15.1821 12.3119 15.2913 12.3119 15.4259C12.3119 15.5605 12.421 15.6696 12.5556 15.6696Z" fill="black"/>
<path d="M7.44437 6.81782C7.57899 6.81782 7.68812 6.70869 7.68812 6.57407C7.68812 6.43945 7.57899 6.33032 7.44437 6.33032C7.30975 6.33032 7.20062 6.43945 7.20062 6.57407C7.20062 6.70869 7.30975 6.81782 7.44437 6.81782Z" fill="black"/>
<path d="M10 8.50902C10.2444 8.50902 10.4425 8.31091 10.4425 8.06652C10.4425 7.82214 10.2444 7.62402 10 7.62402C9.75562 7.62402 9.5575 7.82214 9.5575 8.06652C9.5575 8.31091 9.75562 8.50902 10 8.50902Z" fill="black"/>
<path d="M10 6.62003C10.1672 6.62003 10.3028 6.48446 10.3028 6.31722C10.3028 6.14998 10.1672 6.0144 10 6.0144C9.83276 6.0144 9.69719 6.14998 9.69719 6.31722C9.69719 6.48446 9.83276 6.62003 10 6.62003Z" fill="black"/>
<path d="M10 14.376C10.2444 14.376 10.4425 14.1779 10.4425 13.9335C10.4425 13.6891 10.2444 13.491 10 13.491C9.75562 13.491 9.5575 13.6891 9.5575 13.9335C9.5575 14.1779 9.75562 14.376 10 14.376Z" fill="black"/>
<path d="M10 15.9856C10.1672 15.9856 10.3028 15.8501 10.3028 15.6828C10.3028 15.5156 10.1672 15.38 10 15.38C9.83276 15.38 9.69719 15.5156 9.69719 15.6828C9.69719 15.8501 9.83276 15.9856 10 15.9856Z" fill="black"/>
<path d="M7.45938 9.97631C7.70376 9.97631 7.90188 9.77819 7.90188 9.53381C7.90188 9.28942 7.70376 9.09131 7.45938 9.09131C7.21499 9.09131 7.01688 9.28942 7.01688 9.53381C7.01688 9.77819 7.21499 9.97631 7.45938 9.97631Z" fill="black"/>
<path d="M5.94438 8.96097C6.11161 8.96097 6.24719 8.8254 6.24719 8.65816C6.24719 8.49092 6.11161 8.35535 5.94438 8.35535C5.77714 8.35535 5.64156 8.49092 5.64156 8.65816C5.64156 8.8254 5.77714 8.96097 5.94438 8.96097Z" fill="black"/>
<path d="M12.5406 12.9088C12.785 12.9088 12.9831 12.7107 12.9831 12.4663C12.9831 12.2219 12.785 12.0238 12.5406 12.0238C12.2962 12.0238 12.0981 12.2219 12.0981 12.4663C12.0981 12.7107 12.2962 12.9088 12.5406 12.9088Z" fill="black"/>
<path d="M14.0556 13.6447C14.2229 13.6447 14.3584 13.5091 14.3584 13.3419C14.3584 13.1746 14.2229 13.0391 14.0556 13.0391C13.8884 13.0391 13.7528 13.1746 13.7528 13.3419C13.7528 13.5091 13.8884 13.6447 14.0556 13.6447Z" fill="black"/>
<path d="M7.45938 12.9088C7.70376 12.9088 7.90188 12.7107 7.90188 12.4663C7.90188 12.2219 7.70376 12.0238 7.45938 12.0238C7.21499 12.0238 7.01688 12.2219 7.01688 12.4663C7.01688 12.7107 7.21499 12.9088 7.45938 12.9088Z" fill="black"/>
<path d="M5.94438 13.6447C6.11161 13.6447 6.24719 13.5091 6.24719 13.3419C6.24719 13.1746 6.11161 13.0391 5.94438 13.0391C5.77714 13.0391 5.64156 13.1746 5.64156 13.3419C5.64156 13.5091 5.77714 13.6447 5.94438 13.6447Z" fill="black"/>
<path d="M12.5406 9.97631C12.785 9.97631 12.9831 9.77819 12.9831 9.53381C12.9831 9.28942 12.785 9.09131 12.5406 9.09131C12.2962 9.09131 12.0981 9.28942 12.0981 9.53381C12.0981 9.77819 12.2962 9.97631 12.5406 9.97631Z" fill="black"/>
<path d="M14.0556 8.96097C14.2229 8.96097 14.3584 8.8254 14.3584 8.65816C14.3584 8.49092 14.2229 8.35535 14.0556 8.35535C13.8884 8.35535 13.7528 8.49092 13.7528 8.65816C13.7528 8.8254 13.8884 8.96097 14.0556 8.96097Z" fill="black"/>
</g>
<defs>
<clipPath id="clip0_1_593">
<rect width="20" height="20" fill="white" transform="translate(0 0.969971)"/>
</clipPath>
</defs>
</svg>
