<svg width="89" height="37" viewBox="0 0 89 37" fill="none" xmlns="http://www.w3.org/2000/svg">
<g clip-path="url(#clip0_1_1019)">
<path d="M16.9303 5.14129C15.9027 6.35728 14.2586 7.31637 12.6144 7.17935C12.4089 5.5352 13.2139 3.7883 14.1558 2.70932C15.1834 1.45909 16.9817 0.568506 18.4375 0.5C18.6087 2.21265 17.9408 3.89106 16.9303 5.14129ZM18.4203 7.50476C16.0397 7.36775 14.0017 8.85775 12.8713 8.85775C11.7239 8.85775 9.99407 7.57326 8.11015 7.60752C5.66105 7.64177 3.38322 9.02902 2.13299 11.2383C-0.435996 15.657 1.46505 22.1993 3.9484 25.7959C5.16438 27.5771 6.62014 29.5295 8.53831 29.461C10.3537 29.3925 11.073 28.2793 13.2652 28.2793C15.4746 28.2793 16.1082 29.461 18.0264 29.4267C20.0131 29.3925 21.2633 27.6456 22.4793 25.8644C23.8666 23.8435 24.4318 21.8739 24.466 21.7712C24.4318 21.7369 20.6297 20.2812 20.5954 15.8968C20.5611 12.2317 23.5925 10.4848 23.7296 10.382C22.0169 7.84729 19.3452 7.57326 18.4203 7.50476ZM32.1729 2.53806V29.2383H36.3176V20.1099H42.055C47.2957 20.1099 50.9779 16.5133 50.9779 11.3069C50.9779 6.10038 47.3642 2.53806 42.192 2.53806H32.1729ZM36.3176 6.03187H41.0959C44.6925 6.03187 46.7476 7.95005 46.7476 11.324C46.7476 14.6979 44.6925 16.6332 41.0788 16.6332H36.3176V6.03187ZM58.5478 29.4439C61.1511 29.4439 63.5659 28.1251 64.662 26.0357H64.7476V29.2383H68.584V15.9481C68.584 12.0947 65.5012 9.61132 60.7572 9.61132C56.3556 9.61132 53.1016 12.1289 52.9817 15.5885H56.7153C57.0236 13.9443 58.5478 12.8654 60.6373 12.8654C63.172 12.8654 64.5935 14.0471 64.5935 16.2222V17.6951L59.4213 18.0033C54.6087 18.2945 52.0055 20.264 52.0055 23.6893C52.0055 27.1489 54.6944 29.4439 58.5478 29.4439ZM59.6611 26.2755C57.4517 26.2755 56.0474 25.2136 56.0474 23.5866C56.0474 21.9082 57.4004 20.932 59.9865 20.7778L64.5935 20.4867V21.9938C64.5935 24.4943 62.4698 26.2755 59.6611 26.2755ZM73.7048 36.5C77.7467 36.5 79.6477 34.9586 81.309 30.2831L88.5878 9.86822H84.3747L79.4936 25.6418H79.408L74.5269 9.86822H70.1939L77.2158 29.3069L76.839 30.4886C76.2053 32.4924 75.1777 33.2631 73.3452 33.2631C73.0198 33.2631 72.3861 33.2288 72.1292 33.1946V36.3972C72.3689 36.4657 73.3965 36.5 73.7048 36.5Z" fill="white"/>
</g>
<defs>
<clipPath id="clip0_1_1019">
<rect width="87.6879" height="36" fill="white" transform="translate(0.899872 0.5)"/>
</clipPath>
</defs>
</svg>
