<svg width="24" height="24" viewBox="0 0 24 24" fill="none" xmlns="http://www.w3.org/2000/svg">
<path d="M12.5343 23.7948L20.5339 16.5952C20.7035 16.4416 20.7995 16.2272 20.7995 16V11.2003C20.7995 10.8851 20.6139 10.5987 20.3259 10.4691C20.0363 10.3411 19.6988 10.3939 19.4652 10.6051L12 17.3231L4.53638 10.6051C4.30119 10.3939 3.96361 10.3395 3.67563 10.4691C3.38604 10.5987 3.20045 10.8851 3.20045 11.2003V16C3.20045 16.2272 3.29805 16.4416 3.46444 16.5952L11.464 23.7948C11.768 24.0684 12.232 24.0684 12.5343 23.7948Z" fill="white"/>
<path d="M12.5343 13.3954L20.5339 6.19576C20.7035 6.04217 20.7995 5.82778 20.7995 5.6006V0.800856C20.7995 0.485673 20.6139 0.199289 20.3259 0.0696959C20.0363 -0.0582972 19.6988 -0.00550007 19.4652 0.205688L12 6.92372L4.53638 0.205688C4.30119 -0.00550007 3.96361 -0.0598971 3.67563 0.0696959C3.38604 0.199289 3.20045 0.485673 3.20045 0.800856V5.6006C3.20045 5.82778 3.29805 6.04217 3.46444 6.19576L11.464 13.3954C11.768 13.669 12.232 13.669 12.5343 13.3954Z" fill="white"/>
</svg>
