<svg width="19" height="18" viewBox="0 0 19 18" fill="none" xmlns="http://www.w3.org/2000/svg">
<g clip-path="url(#clip0_1_823)">
<mask id="mask0_1_823" style="mask-type:luminance" maskUnits="userSpaceOnUse" x="1" y="1" width="18" height="17">
<path d="M18.2379 1H1.78076V17.4571H18.2379V1Z" fill="white"/>
</mask>
<g mask="url(#mask0_1_823)">
<path d="M1.78076 5.14119V6.94279H4.35356L1.78076 5.14119ZM3.91288 15.1714H7.72362V12.503L3.91288 15.1714ZM12.2951 12.5035V15.1714H16.1054L12.2951 12.5035ZM1.78076 11.5142V13.3158L4.35448 11.5142H1.78076ZM16.1063 3.28564H12.2951V5.95399L16.1063 3.28564ZM18.2379 13.3163V11.5142H15.6638L18.2379 13.3163ZM18.2379 6.94279V5.14119L15.6647 6.94279H18.2379ZM7.72362 3.28564H3.91288L7.72362 5.95399V3.28564Z" fill="#00247D"/>
<path d="M13.2719 11.5144L17.7117 14.6234C17.9285 14.4 18.0843 14.1247 18.1642 13.8239L14.866 11.5144H13.2719ZM7.72216 11.5144H6.74342L2.3041 14.623C2.54227 14.8652 2.84765 15.0385 3.19005 15.119L7.72216 11.9455V11.5144ZM12.2936 6.94295H13.2724L17.7117 3.83438C17.4694 3.58856 17.1623 3.41656 16.8262 3.33838L12.2936 6.51186V6.94295ZM6.74342 6.94295L2.3041 3.83438C2.0874 4.05791 1.93145 4.33314 1.85107 4.63392L5.14936 6.94295H6.74342Z" fill="#CF1B2B"/>
<path d="M18.2379 10.5999H11.3808V15.1714H12.2951V12.5035L16.1054 15.1714H16.4094C16.6522 15.1714 16.8926 15.1229 17.1165 15.0288C17.3404 14.9347 17.5432 14.7968 17.7131 14.6232L13.2734 11.5142H14.8674L18.1657 13.8237C18.2082 13.6696 18.2379 13.5101 18.2379 13.3428V13.3163L15.6638 11.5142H18.2379V10.5999ZM1.78076 10.5999V11.5142H4.35448L1.78076 13.3158V13.3428C1.78076 13.8415 1.98145 14.2927 2.30556 14.6228L6.74488 11.5142H7.72362V11.9453L3.1915 15.1183C3.3259 15.1503 3.46488 15.1714 3.60933 15.1714H3.91288L7.72362 12.503V15.1714H8.6379V10.5999H1.78076ZM18.2379 5.11422C18.2382 4.63512 18.0496 4.17522 17.7131 3.83422L13.2738 6.94279H12.2951V6.5117L16.8276 3.33822C16.6907 3.30463 16.5503 3.28699 16.4094 3.28564H16.1063L12.2951 5.95399V3.28564H11.3808V7.85707H18.2379V6.94279H15.6647L18.2379 5.14119V5.11422ZM7.72362 3.28564V5.95399L3.91288 3.28564H3.60933C3.36642 3.28554 3.12593 3.33402 2.90203 3.42823C2.67813 3.52243 2.47533 3.66047 2.30556 3.83422L6.74488 6.94279H5.15082L1.85253 4.63376C1.80718 4.78997 1.78304 4.95157 1.78076 5.11422V5.14119L4.35356 6.94279H1.78076V7.85707H8.6379V3.28564H7.72362Z" fill="#EEEEEE"/>
<path d="M11.3808 7.85707V3.28564H8.6379V7.85707H1.78076V10.5999H8.6379V15.1714H11.3808V10.5999H18.2379V7.85707H11.3808Z" fill="#CF1B2B"/>
</g>
</g>
<defs>
<clipPath id="clip0_1_823">
<rect width="18" height="17" fill="white" transform="translate(0.97998 0.5)"/>
</clipPath>
</defs>
</svg>
