<svg width="20" height="21" viewBox="0 0 20 21" fill="none" xmlns="http://www.w3.org/2000/svg">
<g clip-path="url(#clip0_1_272)">
<path d="M10 20.97C15.5228 20.97 20 16.4928 20 10.97C20 5.44712 15.5228 0.969971 10 0.969971C4.47715 0.969971 0 5.44712 0 10.97C0 16.4928 4.47715 20.97 10 20.97Z" fill="white"/>
<path d="M14.4931 9.73247C14.6894 8.42247 13.6912 7.7181 12.3275 7.2481L12.77 5.4731L11.69 5.20435L11.2587 6.93247C10.975 6.86122 10.6837 6.79497 10.3931 6.72872L10.8275 4.98935L9.7475 4.71997L9.305 6.49435C9.07 6.4406 8.83875 6.3881 8.615 6.33185L8.61625 6.32622L7.12625 5.95435L6.83875 7.1081C6.83875 7.1081 7.64062 7.29185 7.62375 7.3031C8.06125 7.41247 8.14 7.70185 8.12687 7.93185L7.62312 9.95372C7.65312 9.96122 7.69187 9.97247 7.73562 9.98935L7.62125 9.96122L6.915 12.7937C6.86125 12.9262 6.72562 13.1256 6.41937 13.05C6.43062 13.0656 5.63437 12.8543 5.63437 12.8543L5.09812 14.0906L6.50437 14.4412C6.76562 14.5068 7.02187 14.5756 7.27375 14.64L6.82687 16.435L7.90625 16.7037L8.34875 14.9287C8.64375 15.0081 8.93 15.0818 9.21 15.1518L8.76875 16.9193L9.84875 17.1881L10.2956 15.3968C12.1381 15.7456 13.5231 15.605 14.1062 13.9387C14.5762 12.5975 14.0831 11.8231 13.1137 11.3187C13.82 11.1562 14.3512 10.6918 14.4931 9.73247ZM12.0244 13.1937C11.6912 14.5356 9.43187 13.81 8.69937 13.6281L9.29312 11.25C10.0256 11.4331 12.3737 11.795 12.0244 13.1937ZM12.3587 9.7131C12.0544 10.9337 10.1744 10.3131 9.565 10.1612L10.1025 8.00497C10.7119 8.15685 12.6762 8.43997 12.3587 9.7131Z" fill="black"/>
</g>
<defs>
<clipPath id="clip0_1_272">
<rect width="20" height="20" fill="white" transform="translate(0 0.969971)"/>
</clipPath>
</defs>
</svg>
