<svg width="81" height="37" viewBox="0 0 81 37" fill="none" xmlns="http://www.w3.org/2000/svg">
<g clip-path="url(#clip0_1_1030)">
<path d="M38.1091 19.1141V27.9015H35.1091V6.16919H42.9091C44.8091 6.16919 46.6091 6.83061 48.0091 8.05895C49.4091 9.19281 50.1091 10.8936 50.1091 12.6889C50.1091 14.4841 49.4091 16.0904 48.0091 17.3188C46.6091 18.5471 44.9091 19.2086 42.9091 19.2086L38.1091 19.1141ZM38.1091 8.81486V16.3739H43.1091C44.2091 16.3739 45.3091 15.996 46.0091 15.2401C47.6091 13.8227 47.6091 11.4605 46.1091 10.0432L46.0091 9.94872C45.2091 9.19281 44.2091 8.72037 43.1091 8.81486H38.1091Z" fill="white"/>
<path d="M57.0091 12.5945C59.2091 12.5945 60.9091 13.1614 62.2091 14.2953C63.5091 15.4291 64.1091 16.9409 64.1091 18.8307V27.9016H61.3091V25.8228H61.2091C60.0091 27.5236 58.3091 28.374 56.3091 28.374C54.6091 28.374 53.1091 27.9016 51.9091 26.9567C50.8091 26.0118 50.1091 24.689 50.1091 23.2716C50.1091 21.7598 50.7091 20.5315 51.9091 19.5866C53.1091 18.6417 54.8091 18.2638 56.8091 18.2638C58.6091 18.2638 60.0091 18.5472 61.1091 19.2087V18.5472C61.1091 17.6024 60.7091 16.6575 59.9091 16.0905C59.1091 15.4291 58.1091 15.0512 57.0091 15.0512C55.3091 15.0512 54.0091 15.7126 53.1091 17.0354L50.5091 15.5236C52.1091 13.5394 54.2091 12.5945 57.0091 12.5945ZM53.2091 23.3661C53.2091 24.122 53.6091 24.7835 54.2091 25.1614C54.9091 25.6339 55.7091 25.9173 56.5091 25.9173C57.7091 25.9173 58.9091 25.4449 59.8091 24.5945C60.8091 23.7441 61.3091 22.7047 61.3091 21.5709C60.4091 20.9094 59.1091 20.5315 57.4091 20.5315C56.2091 20.5315 55.2091 20.815 54.4091 21.3819C53.6091 21.8543 53.2091 22.5157 53.2091 23.3661Z" fill="white"/>
<path d="M80.3091 13.0669L70.4091 34.5157H67.4091L71.1091 27.0511L64.6091 13.1614H67.8091L72.5091 23.8385H72.6091L77.2091 13.1614H80.3091V13.0669Z" fill="white"/>
<path d="M26.2092 17.2245C26.2092 16.3741 26.1092 15.5237 26.0092 14.6733H13.5092V19.4922H20.6092C20.3092 21.004 19.4092 22.4214 18.0092 23.2718V26.3899H22.3092C24.8092 24.2166 26.2092 21.004 26.2092 17.2245Z" fill="white"/>
<path d="M13.5091 29.4135C17.1091 29.4135 20.1091 28.2796 22.3091 26.3898L18.0091 23.2717C16.8091 24.0276 15.3091 24.5001 13.5091 24.5001C10.1091 24.5001 7.10914 22.3268 6.10914 19.3032H1.70914V22.5158C4.00914 26.7678 8.50914 29.4135 13.5091 29.4135Z" fill="#A5A5A5"/>
<path d="M6.10915 19.3032C5.50915 17.7914 5.50915 16.0906 6.10915 14.4843V11.2717H1.70915C-0.190851 14.7678 -0.190851 18.9253 1.70915 22.5158L6.10915 19.3032Z" fill="white"/>
<path d="M13.5091 9.38185C15.4091 9.38185 17.2091 10.0433 18.6091 11.2716L22.4091 7.68106C20.0091 5.60232 16.8091 4.37397 13.6091 4.46846C8.60914 4.46846 4.00914 7.11413 1.80914 11.3661L6.20914 14.5787C7.10914 11.5551 10.1091 9.38185 13.5091 9.38185Z" fill="#A5A5A5"/>
</g>
<defs>
<clipPath id="clip0_1_1030">
<rect width="80" height="36" fill="white" transform="translate(0.309143 0.5)"/>
</clipPath>
</defs>
</svg>
