<svg width="60" height="61" viewBox="0 0 60 61" fill="none" xmlns="http://www.w3.org/2000/svg">
<circle cx="30" cy="30.5" r="30" fill="#282828"/>
<path d="M43.2301 32.125H33.526C33.1019 32.125 32.7562 32.4707 32.7562 32.8947C32.7562 33.1107 32.848 33.3053 32.9911 33.4456L39.8242 40.2788C39.9646 40.43 40.1674 40.5247 40.3889 40.5247C40.6562 40.5247 40.8911 40.3896 41.0289 40.1843C42.7089 38.2342 43.7892 35.7576 43.9838 33.0324C43.9946 32.9865 43.9999 32.9406 43.9999 32.8946C44 32.4707 43.6569 32.125 43.2301 32.125Z" fill="white"/>
<path d="M30.5955 18.1749C30.1714 18.1775 29.8284 18.5206 29.8284 18.9447V29.7292C29.8284 30.156 30.1714 30.5017 30.5955 30.5017H41.3828C41.8069 30.5017 42.1525 30.156 42.1525 29.7292C41.7716 23.5227 36.8047 18.5558 30.5955 18.1749Z" fill="white"/>
<path d="M36.5239 39.6495L28.5672 31.6928C28.4322 31.5551 28.3512 31.3633 28.3512 31.1553L28.3484 19.9169C28.3484 19.4929 28.0054 19.1499 27.5813 19.1499C21.1182 19.5443 16 24.9135 16 31.4741C16 38.2937 21.5288 43.8251 28.3484 43.8251C31.4598 43.8251 34.3011 42.6746 36.4726 40.7758C36.6401 40.6352 36.7454 40.4247 36.7454 40.1897C36.7454 39.9817 36.6616 39.7899 36.5239 39.6495Z" fill="white"/>
</svg>
