<svg width="60" height="61" viewBox="0 0 60 61" fill="none" xmlns="http://www.w3.org/2000/svg">
<circle cx="30" cy="30.5" r="30" fill="#282828"/>
<g clip-path="url(#clip0_1_493)">
<path d="M16.3817 31.0363C16.0807 31.1471 15.9256 31.4808 16.0352 31.7829L16.4016 32.7909L19.1909 30.0015L16.3817 31.0363Z" fill="white"/>
<path d="M19.0218 39.996L20.7017 44.6158C20.7542 44.7617 20.8638 44.8807 21.0038 44.9448C21.082 44.9809 21.166 44.9996 21.25 44.9996C21.3188 44.9996 21.3865 44.988 21.4518 44.9635L23.3056 44.2799L19.0218 39.996Z" fill="white"/>
<path d="M43.9642 36.0516L42.0416 30.7656L37.4277 35.3796L39.7142 34.5373C40.0141 34.4229 40.3524 34.5793 40.4632 34.8826C40.5752 35.1848 40.4201 35.5208 40.1179 35.6316L37.213 36.7026C37.1465 36.7271 37.0788 36.7387 37.0111 36.7387C36.7743 36.7387 36.5503 36.5929 36.464 36.3572C36.4628 36.3537 36.464 36.3502 36.4628 36.3467L31.5735 41.2361L43.6177 36.7982C43.9199 36.6874 44.075 36.3537 43.9642 36.0516Z" fill="white"/>
<path d="M43.8287 26.5039L34.4957 17.1709C34.2682 16.9434 33.8984 16.9434 33.6709 17.1709L16.1715 34.6702C15.944 34.8977 15.944 35.2676 16.1715 35.4951L25.5045 44.8281C25.6177 44.9424 25.767 44.9996 25.9164 44.9996C26.0657 44.9996 26.215 44.9424 26.3293 44.8292L43.8287 27.3299C44.0562 27.1012 44.0562 26.7325 43.8287 26.5039ZM22.8295 33.163L20.4962 35.4962C20.3819 35.6094 20.2326 35.6666 20.0832 35.6666C19.9339 35.6666 19.7846 35.6094 19.6702 35.4962C19.4427 35.2687 19.4427 34.8989 19.6702 34.6714L22.0035 32.3381C22.231 32.1106 22.6008 32.1106 22.8283 32.3381C23.0558 32.5657 23.057 32.9343 22.8295 33.163ZM32.9033 33.9038C32.4903 34.3168 31.9292 34.5151 31.305 34.5151C30.2737 34.5151 29.0686 33.975 28.0606 32.9658C27.3233 32.2285 26.8053 31.3465 26.6035 30.4832C26.3795 29.5208 26.5638 28.6832 27.1226 28.1232C27.6815 27.5632 28.5191 27.3789 29.4827 27.6041C30.346 27.8059 31.228 28.3227 31.9652 29.0611C33.5857 30.6804 33.9987 32.8083 32.9033 33.9038ZM40.3289 27.3299L37.9956 29.6631C37.8812 29.7763 37.7319 29.8335 37.5826 29.8335C37.4333 29.8335 37.284 29.7763 37.1696 29.6631C36.9421 29.4356 36.9421 29.0658 37.1696 28.8383L39.5029 26.505C39.7304 26.2775 40.1002 26.2775 40.3277 26.505C40.5552 26.7325 40.5563 27.1012 40.3289 27.3299Z" fill="white"/>
</g>
<defs>
<clipPath id="clip0_1_493">
<rect width="28" height="28" fill="white" transform="translate(16 17)"/>
</clipPath>
</defs>
</svg>
