<svg width="60" height="61" viewBox="0 0 60 61" fill="none" xmlns="http://www.w3.org/2000/svg">
<circle cx="30" cy="30.5" r="30" fill="#282828"/>
<g clip-path="url(#clip0_1_510)">
<path d="M39.2969 27.9341H32.4812L37.8263 18.2156C38.127 17.6689 37.7314 17 37.1075 17H27.2644C26.9178 17 26.6085 17.2179 26.4919 17.5444L21.0244 32.8535C20.8336 33.3877 21.2296 33.9497 21.7969 33.9497H29.5482L27.5547 44.0169C27.3828 44.8846 28.5168 45.3723 29.0285 44.6508L39.966 29.2289C40.3513 28.6857 39.9628 27.9341 39.2969 27.9341Z" fill="white"/>
<path d="M25.1805 43.2341C25.6248 43.323 26.0569 43.0348 26.1458 42.5906L27.3488 36.5749C27.4376 36.1307 27.1495 35.6985 26.7053 35.6097C26.261 35.5209 25.8289 35.809 25.74 36.2532L24.537 42.2689C24.4481 42.7131 24.7362 43.1453 25.1805 43.2341Z" fill="white"/>
<path d="M18.2399 33.3367C18.6666 33.4891 19.136 33.2667 19.2884 32.8401L22.8039 22.9963C22.9563 22.5697 22.734 22.1003 22.3073 21.9479C21.8807 21.7956 21.4113 22.0179 21.2589 22.4445L17.7433 32.2883C17.591 32.715 17.8133 33.1843 18.2399 33.3367Z" fill="white"/>
<path d="M40.1353 17.4251L37.1274 22.8939C36.9091 23.2909 37.0539 23.7896 37.4509 24.008C37.8478 24.2263 38.3466 24.0815 38.565 23.6846L41.5728 18.2158C41.7911 17.8188 41.6463 17.3201 41.2494 17.1017C40.8524 16.8834 40.3536 17.0282 40.1353 17.4251Z" fill="white"/>
<path d="M31.9211 44.8515C32.2922 45.1115 32.8037 45.0213 33.0636 44.6502L36.9699 39.072C37.2298 38.7009 37.1396 38.1894 36.7686 37.9295L36.7685 37.9294C36.3974 37.6696 35.8859 37.7598 35.626 38.1308L31.7197 43.709C31.4598 44.0802 31.55 44.5916 31.9211 44.8515Z" fill="white"/>
<path d="M40.8168 30.8637L38.8636 33.5982C38.6003 33.9668 38.6857 34.4791 39.0543 34.7424H39.0544C39.423 35.0058 39.9353 34.9204 40.1986 34.5518L42.1518 31.8173C42.4151 31.4487 42.3298 30.9364 41.9611 30.673C41.5925 30.4097 41.0801 30.495 40.8168 30.8637Z" fill="white"/>
</g>
<defs>
<clipPath id="clip0_1_510">
<rect width="28" height="28" fill="white" transform="translate(16 17)"/>
</clipPath>
</defs>
</svg>
