<svg width="24" height="26" viewBox="0 0 24 26" fill="none" xmlns="http://www.w3.org/2000/svg">
<path fill-rule="evenodd" clip-rule="evenodd" d="M7.46503 2.03597C8.63803 1.98197 9.01203 1.96997 12 1.96997C14.988 1.96997 15.362 1.98297 16.534 2.03597C17.706 2.08897 18.506 2.27597 19.206 2.54697C19.939 2.82397 20.604 3.25697 21.154 3.81697C21.714 4.36597 22.146 5.02997 22.422 5.76397C22.694 6.46397 22.88 7.26397 22.934 8.43397C22.988 9.60897 23 9.98297 23 12.97C23 15.958 22.987 16.332 22.934 17.505C22.881 18.675 22.694 19.475 22.422 20.175C22.146 20.9091 21.7133 21.5742 21.154 22.124C20.604 22.684 19.939 23.116 19.206 23.392C18.506 23.664 17.706 23.85 16.536 23.904C15.362 23.958 14.988 23.97 12 23.97C9.01203 23.97 8.63803 23.957 7.46503 23.904C6.29503 23.851 5.49503 23.664 4.79503 23.392C4.06095 23.116 3.39585 22.6833 2.84603 22.124C2.28641 21.5747 1.85335 20.9099 1.57703 20.176C1.30603 19.476 1.12003 18.676 1.06603 17.506C1.01203 16.331 1.00003 15.957 1.00003 12.97C1.00003 9.98197 1.01303 9.60797 1.06603 8.43597C1.11903 7.26397 1.30603 6.46397 1.57703 5.76397C1.85375 5.03005 2.28715 4.36528 2.84703 3.81597C3.39607 3.25647 4.0605 2.82341 4.79403 2.54697C5.49403 2.27597 6.29403 2.08997 7.46403 2.03597H7.46503ZM16.445 4.01597C15.285 3.96297 14.937 3.95197 12 3.95197C9.06303 3.95197 8.71503 3.96297 7.55503 4.01597C6.48203 4.06497 5.90003 4.24397 5.51203 4.39497C4.99903 4.59497 4.63203 4.83197 4.24703 5.21697C3.88208 5.57202 3.60121 6.00425 3.42503 6.48197C3.27403 6.86997 3.09503 7.45197 3.04603 8.52497C2.99303 9.68497 2.98203 10.033 2.98203 12.97C2.98203 15.907 2.99303 16.255 3.04603 17.415C3.09503 18.488 3.27403 19.07 3.42503 19.458C3.60103 19.935 3.88203 20.368 4.24703 20.723C4.60203 21.088 5.03503 21.369 5.51203 21.545C5.90003 21.696 6.48203 21.875 7.55503 21.924C8.71503 21.977 9.06203 21.988 12 21.988C14.938 21.988 15.285 21.977 16.445 21.924C17.518 21.875 18.1 21.696 18.488 21.545C19.001 21.345 19.368 21.108 19.753 20.723C20.118 20.368 20.399 19.935 20.575 19.458C20.726 19.07 20.905 18.488 20.954 17.415C21.007 16.255 21.018 15.907 21.018 12.97C21.018 10.033 21.007 9.68497 20.954 8.52497C20.905 7.45197 20.726 6.86997 20.575 6.48197C20.375 5.96897 20.138 5.60197 19.753 5.21697C19.398 4.85204 18.9657 4.57118 18.488 4.39497C18.1 4.24397 17.518 4.06497 16.445 4.01597ZM10.595 16.361C11.3797 16.6876 12.2534 16.7317 13.067 16.4857C13.8805 16.2397 14.5834 15.7189 15.0556 15.0122C15.5279 14.3056 15.7401 13.4569 15.6561 12.6111C15.5721 11.7653 15.197 10.975 14.595 10.375C14.2113 9.99145 13.7472 9.69778 13.2364 9.51512C12.7255 9.33245 12.1805 9.26533 11.6405 9.31859C11.1006 9.37184 10.5792 9.54415 10.1138 9.8231C9.64849 10.1021 9.25077 10.4807 8.94933 10.9319C8.64789 11.383 8.45022 11.8953 8.37055 12.432C8.29087 12.9686 8.33118 13.5163 8.48857 14.0355C8.64596 14.5547 8.91651 15.0326 9.28075 15.4347C9.64499 15.8368 10.0939 16.1532 10.595 16.361ZM8.00203 8.97197C8.52706 8.44694 9.15035 8.03047 9.83633 7.74633C10.5223 7.46219 11.2575 7.31594 12 7.31594C12.7425 7.31594 13.4778 7.46219 14.1637 7.74633C14.8497 8.03047 15.473 8.44694 15.998 8.97197C16.5231 9.49699 16.9395 10.1203 17.2237 10.8063C17.5078 11.4923 17.6541 12.2275 17.6541 12.97C17.6541 13.7125 17.5078 14.4477 17.2237 15.1337C16.9395 15.8197 16.5231 16.443 15.998 16.968C14.9377 18.0283 13.4996 18.624 12 18.624C10.5005 18.624 9.06237 18.0283 8.00203 16.968C6.94169 15.9077 6.346 14.4695 6.346 12.97C6.346 11.4705 6.94169 10.0323 8.00203 8.97197ZM18.908 8.15797C19.0381 8.03524 19.1423 7.88765 19.2143 7.72394C19.2864 7.56024 19.3248 7.38374 19.3274 7.2049C19.3301 7.02606 19.2968 6.84852 19.2295 6.68278C19.1623 6.51704 19.0625 6.36648 18.936 6.24001C18.8095 6.11354 18.659 6.01373 18.4932 5.94649C18.3275 5.87925 18.1499 5.84595 17.9711 5.84855C17.7923 5.85116 17.6158 5.88962 17.4521 5.96167C17.2883 6.03371 17.1408 6.13787 17.018 6.26797C16.7793 6.521 16.6487 6.85709 16.6537 7.2049C16.6588 7.55271 16.7992 7.88485 17.0452 8.13081C17.2912 8.37678 17.6233 8.5172 17.9711 8.52227C18.3189 8.52734 18.655 8.39666 18.908 8.15797Z" fill="white"/>
</svg>
