<svg width="150" height="30" viewBox="0 0 150 30" fill="none" xmlns="http://www.w3.org/2000/svg">
<path d="M0 13.237C0 11.8706 0.257745 10.5982 0.773234 9.41995C1.28872 8.23351 2.03332 7.20662 3.00702 6.33929C3.9889 5.46377 5.18353 4.77645 6.5909 4.27733C8.00645 3.7782 9.6061 3.52864 11.3899 3.52864C12.9527 3.52864 14.3846 3.6882 15.6856 4.00731C16.9948 4.31824 18.2099 4.79691 19.3308 5.44332L17.5389 8.38897C17.2034 8.16805 16.8148 7.97167 16.3729 7.79984C15.9393 7.62801 15.4729 7.48482 14.9737 7.37027C14.4828 7.24753 13.9714 7.15343 13.4395 7.08797C12.9159 7.02251 12.3963 6.98979 11.8808 6.98979C10.6371 6.98979 9.52837 7.14525 8.55467 7.45618C7.58096 7.75893 6.75864 8.1885 6.08768 8.7449C5.42491 9.29312 4.9176 9.9518 4.56576 10.7209C4.2221 11.4819 4.05027 12.3206 4.05027 13.237C4.05027 14.1862 4.23028 15.0576 4.59031 15.8513C4.95033 16.645 5.46991 17.3323 6.14905 17.9132C6.83637 18.486 7.67097 18.936 8.65285 19.2633C9.64292 19.5825 10.7598 19.742 12.0035 19.742C12.5681 19.742 13.1286 19.7011 13.685 19.6193C14.2414 19.5374 14.7774 19.427 15.2928 19.2879C15.8165 19.1406 16.3197 18.9688 16.8025 18.7724C17.2853 18.5678 17.7353 18.3469 18.1526 18.1096L19.9445 21.0553C18.8972 21.7262 17.6862 22.254 16.3116 22.6386C14.9369 23.015 13.4764 23.2031 11.9299 23.2031C9.95794 23.2031 8.22737 22.9495 6.73818 22.4422C5.24899 21.9267 4.00527 21.223 3.00702 20.3311C2.00877 19.4311 1.25599 18.3756 0.748687 17.1646C0.249562 15.9454 0 14.6362 0 13.237Z" fill="white"/>
<path d="M52.4606 23.13C52.7599 23.13 53.0026 22.8873 53.0026 22.588C53.0026 22.2887 52.7599 22.046 52.4606 22.046C52.1613 22.046 51.9186 22.2887 51.9186 22.588C51.9186 22.8873 52.1613 23.13 52.4606 23.13Z" fill="white"/>
<path d="M47.5826 1.72099C47.8819 1.72099 48.1246 1.47833 48.1246 1.17899C48.1246 0.879655 47.8819 0.636993 47.5826 0.636993C47.2833 0.636993 47.0406 0.879655 47.0406 1.17899C47.0406 1.47833 47.2833 1.72099 47.5826 1.72099Z" fill="white"/>
<path d="M24.2766 7.683C23.955 7.683 23.6406 7.77836 23.3732 7.95703C23.1058 8.13569 22.8974 8.38964 22.7744 8.68675C22.6513 8.98386 22.6191 9.3108 22.6818 9.62621C22.7446 9.94163 22.8994 10.2314 23.1268 10.4588C23.3542 10.6862 23.644 10.841 23.9594 10.9038C24.2748 10.9665 24.6017 10.9343 24.8988 10.8112C25.196 10.6882 25.4499 10.4797 25.6286 10.2124C25.8072 9.94496 25.9026 9.63059 25.9026 9.309C25.9021 8.8779 25.7307 8.46459 25.4258 8.15976C25.121 7.85493 24.7077 7.68347 24.2766 7.683ZM24.2766 9.851C24.1694 9.851 24.0646 9.81921 23.9755 9.75965C23.8863 9.7001 23.8169 9.61545 23.7759 9.51641C23.7348 9.41737 23.7241 9.30839 23.745 9.20326C23.7659 9.09812 23.8175 9.00154 23.8933 8.92574C23.9691 8.84994 24.0657 8.79832 24.1709 8.77741C24.276 8.7565 24.385 8.76723 24.484 8.80825C24.583 8.84928 24.6677 8.91875 24.7273 9.00788C24.7868 9.09701 24.8186 9.2018 24.8186 9.309C24.8185 9.45272 24.7614 9.59053 24.6598 9.69215C24.5581 9.79378 24.4203 9.85091 24.2766 9.851Z" fill="white"/>
<path d="M28.0706 1.72099C28.3699 1.72099 28.6126 1.47833 28.6126 1.17899C28.6126 0.879655 28.3699 0.636993 28.0706 0.636993C27.7713 0.636993 27.5286 0.879655 27.5286 1.17899C27.5286 1.47833 27.7713 1.72099 28.0706 1.72099Z" fill="white"/>
<path d="M42.7046 29.363C43.0039 29.363 43.2466 29.1203 43.2466 28.821C43.2466 28.5217 43.0039 28.279 42.7046 28.279C42.4053 28.279 42.1626 28.5217 42.1626 28.821C42.1626 29.1203 42.4053 29.363 42.7046 29.363Z" fill="white"/>
<path d="M52.0805 15.4187L51.1782 12.1084L52.0595 11.2272C52.9507 10.3383 53.6517 9.27744 54.1198 8.10907C54.588 6.9407 54.8135 5.68929 54.7826 4.43099C54.7785 4.29276 54.7218 4.16132 54.624 4.06353C54.5262 3.96574 54.3947 3.90899 54.2565 3.90487C52.9986 3.87674 51.7479 4.1035 50.5799 4.57152C49.412 5.03953 48.3508 5.7391 47.4603 6.6281L47.2959 6.79254C45.8828 5.05892 43.9676 3.8053 41.8134 3.20387C39.6592 2.60244 37.3716 2.68269 35.2648 3.43361C33.1581 4.18452 31.3354 5.56926 30.0473 7.39765C28.7591 9.22604 28.0686 11.4084 28.0706 13.645C28.072 15.2069 28.4136 16.7498 29.0715 18.1665C29.0448 18.1905 29.0207 18.2172 28.9995 18.2462C27.6905 20.4576 26.4192 23.3819 27.7963 24.7592C28.0142 24.9617 28.2707 25.1181 28.5505 25.2191C28.8302 25.3201 29.1275 25.3635 29.4245 25.3468C30.7332 25.3468 32.4834 24.6407 34.4023 23.4906C35.7869 24.1297 37.2911 24.4684 38.816 24.4845C40.3409 24.5006 41.8519 24.1936 43.2496 23.5839C44.6474 22.9741 45.9002 22.0753 46.9257 20.9467C47.9512 19.818 48.7261 18.485 49.1995 17.0354L49.6415 17.4775C49.7432 17.5792 49.881 17.6363 50.0248 17.6363C50.1685 17.6363 50.3063 17.5792 50.408 17.4775L51.9408 15.9442C52.0084 15.8767 52.0569 15.7925 52.0815 15.7003C52.106 15.608 52.1057 15.5108 52.0805 15.4187ZM53.6964 4.99099C53.6107 7.0514 52.7527 9.00409 51.293 10.4607L46.9593 14.7946L43.8931 11.7289L48.227 7.39454C49.6834 5.93463 51.636 5.07653 53.6964 4.99099ZM45.4247 14.7935C44.6393 15.5433 43.63 16.0152 42.5511 16.137C42.6726 15.0579 43.1442 14.0484 43.8939 13.2628L45.4247 14.7935ZM43.8929 10.1955L42.3595 8.66271L43.2874 7.73541L45.6964 8.39226L43.8929 10.1955ZM38.9106 3.88899C40.3547 3.89306 41.7801 4.21673 43.0843 4.83678C44.3886 5.45683 45.5394 6.35789 46.4543 7.4753L43.2688 6.60691C43.1766 6.58195 43.0795 6.58173 42.9872 6.60627C42.8949 6.63081 42.8107 6.67925 42.7431 6.74669L41.2097 8.27952C41.1594 8.32983 41.1194 8.38957 41.0922 8.45532C41.0649 8.52107 41.0509 8.59154 41.0509 8.66271C41.0509 8.73389 41.0649 8.80436 41.0922 8.87011C41.1194 8.93586 41.1594 8.9956 41.2097 9.04591L43.1267 10.9621L42.7432 11.3455C42.6416 11.4471 42.5845 11.585 42.5845 11.7287C42.5845 11.8725 42.6416 12.0103 42.7432 12.1119L43.131 12.4996C42.1 13.571 41.5002 14.985 41.4465 16.4709C39.2931 18.649 36.9125 20.5901 34.3455 22.2609C32.4205 21.2423 30.8918 19.6085 30.0032 17.6201C29.1146 15.6317 28.9171 13.4031 29.4423 11.2894C29.9675 9.17576 31.1852 7.29874 32.9011 5.95753C34.6171 4.61632 36.7327 3.88812 38.9106 3.88899ZM33.2275 22.9273C30.5101 24.4363 29.0365 24.4666 28.5628 23.9928C28.0727 23.5021 28.1275 22.0073 29.6619 19.2699C30.5646 20.7484 31.8067 21.9906 33.2851 22.8934C33.2663 22.9039 33.2464 22.9168 33.2275 22.9273ZM38.9106 23.401C37.7533 23.3987 36.6058 23.1889 35.5224 22.7818C37.9206 21.1496 40.1595 19.2948 42.2092 17.2419C43.698 17.1899 45.115 16.5896 46.1881 15.5563L46.5759 15.944C46.6262 15.9943 46.6859 16.0343 46.7517 16.0615C46.8174 16.0888 46.8879 16.1028 46.9591 16.1028C47.0303 16.1028 47.1007 16.0888 47.1665 16.0615C47.2322 16.0343 47.292 15.9943 47.3423 15.944L47.7255 15.5608L48.3217 16.157C47.7772 18.2365 46.5575 20.0762 44.8542 21.3874C43.1508 22.6985 41.0602 23.4068 38.9106 23.401ZM50.0248 16.3279L48.4919 14.7945L50.2953 12.9912L50.9521 15.4L50.0248 16.3279Z" fill="white"/>
<path d="M50.408 9.90552C50.7295 9.90553 51.0439 9.8102 51.3112 9.63158C51.5786 9.45296 51.787 9.19908 51.9101 8.90203C52.0332 8.60498 52.0655 8.2781 52.0029 7.96272C51.9402 7.64733 51.7855 7.3576 51.5582 7.13015C51.2484 6.8345 50.8366 6.6695 50.4084 6.6694C49.9801 6.6693 49.5683 6.83411 49.2584 7.12961C49.031 7.35701 48.8762 7.64726 48.8135 7.96264C48.7507 8.27802 48.7829 8.60492 48.906 8.902C49.029 9.19908 49.2374 9.45302 49.5048 9.63169C49.7721 9.81036 50.0864 9.90547 50.408 9.90552ZM50.0248 7.89681C50.0751 7.84628 50.1348 7.80567 50.2006 7.77827C50.2664 7.75087 50.337 7.73672 50.4082 7.73664C50.4795 7.73656 50.5501 7.75055 50.616 7.7778C50.6819 7.80505 50.7417 7.84503 50.7921 7.89545C50.8424 7.94586 50.8824 8.00573 50.9096 8.07161C50.9368 8.13749 50.9507 8.2081 50.9506 8.27938C50.9505 8.35065 50.9363 8.4212 50.9088 8.48698C50.8814 8.55276 50.8412 8.61248 50.7906 8.66271C50.6875 8.7613 50.5504 8.81632 50.4077 8.81632C50.2651 8.81632 50.1279 8.7613 50.0248 8.66271C49.9745 8.61245 49.9345 8.55276 49.9073 8.48705C49.88 8.42134 49.866 8.3509 49.866 8.27976C49.866 8.20863 49.88 8.13819 49.9073 8.07248C49.9345 8.00677 49.9745 7.94707 50.0248 7.89681Z" fill="white"/>
<path d="M59.1021 18.5024C60.084 19.0915 61.164 19.5252 62.3423 19.8034C63.5205 20.0816 64.7274 20.2207 65.963 20.2207C66.7976 20.2207 67.4931 20.1634 68.0495 20.0488C68.6059 19.9343 69.0518 19.787 69.3873 19.607C69.7228 19.427 69.9601 19.2224 70.0992 18.9933C70.2383 18.7642 70.3078 18.531 70.3078 18.2937C70.3078 17.9501 70.1564 17.6555 69.8537 17.41C69.5591 17.1646 69.0682 17.0418 68.3809 17.0418C68.0618 17.0418 67.7181 17.0623 67.3499 17.1032C66.9817 17.1441 66.593 17.1891 66.1839 17.2382C65.783 17.2791 65.3616 17.32 64.9197 17.3609C64.4861 17.4018 64.0442 17.4223 63.5942 17.4223C62.6123 17.4223 61.7736 17.3159 61.0781 17.1032C60.3908 16.8905 59.8303 16.6 59.3966 16.2318C58.963 15.8636 58.6479 15.4299 58.4516 14.9308C58.2552 14.4235 58.157 13.8793 58.157 13.2984C58.157 12.562 58.3288 11.8828 58.6725 11.261C59.0161 10.6391 59.5071 10.1032 60.1453 9.65315C60.7835 9.19493 61.5527 8.839 62.4527 8.58535C63.361 8.33169 64.3715 8.20487 65.4843 8.20487C66.0653 8.20487 66.6708 8.24169 67.3008 8.31533C67.939 8.38079 68.565 8.47079 69.1786 8.58535C69.7923 8.6999 70.3815 8.83491 70.946 8.99037C71.5106 9.13766 72.0098 9.29721 72.4434 9.46904L71.302 12.292C70.3774 11.9483 69.4528 11.6783 68.5282 11.4819C67.6117 11.2773 66.6667 11.1751 65.693 11.1751C65.0138 11.1751 64.437 11.2283 63.9624 11.3346C63.496 11.4328 63.1155 11.5678 62.8209 11.7396C62.5264 11.9033 62.3096 12.0956 62.1705 12.3165C62.0395 12.5292 61.9741 12.7543 61.9741 12.9916C61.9741 13.1634 62.0068 13.3188 62.0723 13.4579C62.1459 13.597 62.2605 13.7198 62.4159 13.8262C62.5796 13.9243 62.7882 14.0021 63.0419 14.0594C63.3037 14.1084 63.6228 14.133 63.9992 14.133C64.3429 14.133 64.707 14.1125 65.0916 14.0716C65.4761 14.0307 65.8771 13.9898 66.2944 13.9489C66.7117 13.8998 67.1412 13.8548 67.5831 13.8139C68.0331 13.773 68.4913 13.7525 68.9577 13.7525C69.8251 13.7525 70.5819 13.8548 71.2283 14.0594C71.8829 14.2639 72.423 14.5503 72.8484 14.9185C73.2739 15.2867 73.593 15.7204 73.8058 16.2195C74.0185 16.7186 74.1249 17.2627 74.1249 17.8519C74.1249 18.6128 73.949 19.3206 73.5971 19.9752C73.2453 20.6298 72.7216 21.1985 72.0261 21.6812C71.3306 22.1558 70.4633 22.5281 69.4241 22.7981C68.3932 23.0681 67.1985 23.2031 65.8402 23.2031C65.0056 23.2031 64.1997 23.15 63.4224 23.0436C62.645 22.9454 61.9045 22.8104 61.2008 22.6386C60.4972 22.4586 59.8344 22.2499 59.2125 22.0126C58.5988 21.7753 58.0384 21.5217 57.531 21.2517L59.1021 18.5024Z" fill="white"/>
<path d="M77.5001 8.46261H81.1331V9.68997C82.0413 9.13356 82.925 8.74899 83.7842 8.53625C84.6515 8.31533 85.4984 8.20487 86.3248 8.20487C87.4785 8.20487 88.5381 8.38897 89.5037 8.75718C90.4692 9.12538 91.2956 9.68178 91.9829 10.4264C92.5148 10.0173 93.0384 9.6736 93.5539 9.3954C94.0694 9.10902 94.5849 8.87991 95.1004 8.70808C95.6159 8.52807 96.1396 8.40124 96.6714 8.3276C97.2033 8.24578 97.7515 8.20487 98.3161 8.20487C99.5025 8.20487 100.578 8.36851 101.544 8.69581C102.51 9.01492 103.332 9.49359 104.011 10.1318C104.698 10.77 105.226 11.5678 105.594 12.5252C105.971 13.4743 106.159 14.5748 106.159 15.8267V22.9454H102.538V16.4159C102.538 15.6222 102.424 14.9144 102.195 14.2926C101.974 13.6625 101.659 13.1347 101.249 12.7093C100.849 12.2756 100.366 11.9483 99.8012 11.7274C99.2448 11.4983 98.6311 11.3837 97.9601 11.3837C97.5919 11.3837 97.2155 11.4205 96.831 11.4942C96.4464 11.5596 96.07 11.666 95.7018 11.8133C95.3418 11.9606 95.0022 12.1488 94.6831 12.3779C94.364 12.5988 94.0858 12.8606 93.8485 13.1634V22.9454H90.2278V16.4159C90.2278 15.6222 90.1132 14.9144 89.8841 14.2926C89.6632 13.6625 89.3482 13.1347 88.9391 12.7093C88.5381 12.2756 88.0513 11.9483 87.4785 11.7274C86.9139 11.4983 86.2921 11.3837 85.6129 11.3837C85.1956 11.3837 84.7742 11.4287 84.3488 11.5187C83.9315 11.6006 83.5264 11.7192 83.1337 11.8747C82.7491 12.0301 82.385 12.2183 82.0413 12.4392C81.7059 12.6602 81.4031 12.9097 81.1331 13.1879V22.9454H77.5001V8.46261Z" fill="white"/>
<path d="M109.865 15.704C109.865 14.6648 110.074 13.6911 110.491 12.7829C110.917 11.8747 111.518 11.081 112.296 10.4018C113.081 9.7227 114.026 9.18675 115.131 8.794C116.244 8.40124 117.491 8.20487 118.874 8.20487C120.257 8.20487 121.501 8.40124 122.605 8.794C123.718 9.18675 124.663 9.7227 125.441 10.4018C126.226 11.081 126.828 11.8747 127.245 12.7829C127.67 13.6911 127.883 14.6648 127.883 15.704C127.883 16.7432 127.67 17.7169 127.245 18.6251C126.828 19.5334 126.226 20.327 125.441 21.0062C124.663 21.6853 123.718 22.2213 122.605 22.614C121.501 23.0068 120.257 23.2031 118.874 23.2031C117.491 23.2031 116.244 23.0068 115.131 22.614C114.026 22.2213 113.081 21.6853 112.296 21.0062C111.518 20.327 110.917 19.5334 110.491 18.6251C110.074 17.7169 109.865 16.7432 109.865 15.704ZM113.683 15.704C113.683 16.285 113.797 16.8373 114.026 17.3609C114.264 17.8764 114.603 18.3346 115.045 18.7356C115.495 19.1283 116.039 19.4434 116.677 19.6806C117.324 19.9097 118.056 20.0243 118.874 20.0243C119.693 20.0243 120.421 19.9097 121.059 19.6806C121.705 19.4434 122.249 19.1283 122.691 18.7356C123.141 18.3346 123.481 17.8764 123.71 17.3609C123.947 16.8373 124.066 16.285 124.066 15.704C124.066 15.1231 123.947 14.5708 123.71 14.0471C123.481 13.5234 123.141 13.0652 122.691 12.6724C122.249 12.2715 121.705 11.9565 121.059 11.7274C120.421 11.4901 119.693 11.3714 118.874 11.3714C118.056 11.3714 117.324 11.4901 116.677 11.7274C116.039 11.9565 115.495 12.2715 115.045 12.6724C114.603 13.0652 114.264 13.5234 114.026 14.0471C113.797 14.5708 113.683 15.1231 113.683 15.704Z" fill="white"/>
<path d="M137.456 13.2002L130.08 3.76184H134.842L139.936 10.365L145.054 3.76184H149.742L142.231 13.1634L150 22.9454H145.226L139.764 16.0477L134.179 22.9454H129.479L137.456 13.2002Z" fill="white"/>
</svg>
