<svg width="137" height="37" viewBox="0 0 137 37" fill="none" xmlns="http://www.w3.org/2000/svg">
<g clip-path="url(#clip0_1_1038)">
<path d="M43.7304 7.69922C43.451 7.69922 43.2136 7.9021 43.1699 8.17836L39.935 28.6933C39.9232 28.7683 39.9278 28.8449 39.9485 28.9179C39.9692 28.9908 40.0054 29.0585 40.0547 29.1161C40.104 29.1738 40.1652 29.2201 40.2341 29.2518C40.303 29.2835 40.378 29.3 40.4538 29.3H44.2902C44.5692 29.3 44.807 29.0967 44.8507 28.8208L45.801 22.7965C45.8443 22.5206 46.082 22.3173 46.3615 22.3173H49.8494C53.9248 22.3173 57.3842 19.3438 58.0161 15.3146C58.6533 11.2513 55.4789 7.70804 50.9797 7.69922H43.7304ZM47.4597 12.279H50.2504C52.5479 12.279 53.2961 13.6346 53.0595 15.1338C52.8229 16.6362 51.661 17.7428 49.4385 17.7428H46.5981L47.4597 12.279ZM65.8188 13.6735C64.85 13.6771 63.7354 13.8756 62.484 14.3968C59.6136 15.5933 58.2351 18.066 57.6497 19.8687C57.6497 19.8687 55.7864 25.3686 59.9961 28.3902C59.9961 28.3902 63.9002 31.2992 68.2951 28.211L68.2193 28.6933C68.2075 28.7682 68.2122 28.8447 68.2328 28.9177C68.2534 28.9906 68.2896 29.0582 68.3388 29.1158C68.388 29.1735 68.4491 29.2198 68.5179 29.2516C68.5867 29.2833 68.6615 29.2999 68.7373 29.3H72.3792C72.6587 29.3 72.8961 29.0967 72.9398 28.8208L75.1551 14.7721C75.1669 14.6972 75.1624 14.6206 75.1419 14.5475C75.1213 14.4745 75.0852 14.4068 75.0359 14.3491C74.9867 14.2914 74.9256 14.245 74.8567 14.2131C74.7878 14.1813 74.7129 14.1648 74.637 14.1647H70.9951C70.7157 14.1647 70.4779 14.3679 70.4346 14.6438L70.3155 15.4C70.3155 15.4 68.7253 13.6627 65.8188 13.6735ZM65.9378 18.1109C66.356 18.1109 66.7386 18.1686 67.0818 18.2789C68.6531 18.7833 69.5441 20.2929 69.2862 21.9292C68.9683 23.944 67.3159 25.4275 65.1969 25.4275C64.7791 25.4275 64.3966 25.3702 64.0529 25.2599C62.482 24.7555 61.5855 23.2459 61.8433 21.6096C62.1612 19.5948 63.8188 18.1109 65.9378 18.1109Z" fill="#A5A5A5"/>
<path d="M96.1756 7.69922C95.8962 7.69922 95.6588 7.9021 95.6151 8.17836L92.3802 28.6933C92.3684 28.7683 92.373 28.8449 92.3937 28.9179C92.4144 28.9908 92.4506 29.0585 92.4999 29.1161C92.5492 29.1738 92.6104 29.2201 92.6793 29.2518C92.7482 29.2835 92.8231 29.3 92.899 29.3H96.7354C97.0144 29.3 97.2522 29.0967 97.2959 28.8208L98.2462 22.7965C98.2895 22.5206 98.5272 22.3173 98.8067 22.3173H102.295C106.37 22.3173 109.829 19.3438 110.461 15.3146C111.098 11.2513 107.924 7.70804 103.425 7.69922H96.1756ZM99.9049 12.279H102.696C104.993 12.279 105.741 13.6346 105.505 15.1338C105.268 16.6362 104.107 17.7428 101.884 17.7428H99.0433L99.9049 12.279ZM118.264 13.6735C117.295 13.6771 116.18 13.8756 114.929 14.3968C112.058 15.5933 110.68 18.066 110.094 19.8687C110.094 19.8687 108.232 25.3686 112.442 28.3902C112.442 28.3902 116.345 31.2992 120.74 28.211L120.664 28.6933C120.653 28.7683 120.657 28.8449 120.678 28.9179C120.699 28.9908 120.735 29.0585 120.784 29.1161C120.834 29.1738 120.895 29.2201 120.964 29.2518C121.033 29.2835 121.107 29.3 121.183 29.3H124.825C125.104 29.3 125.342 29.0967 125.385 28.8208L127.601 14.7721C127.613 14.6971 127.609 14.6204 127.588 14.5473C127.568 14.4743 127.531 14.4065 127.482 14.3488C127.433 14.291 127.372 14.2447 127.303 14.2129C127.234 14.1811 127.159 14.1646 127.083 14.1647H123.441C123.161 14.1647 122.923 14.3679 122.88 14.6438L122.761 15.4C122.761 15.4 121.17 13.6627 118.264 13.6735ZM118.383 18.1109C118.801 18.1109 119.183 18.1686 119.527 18.2789C121.098 18.7833 121.989 20.2929 121.731 21.9292C121.413 23.944 119.761 25.4275 117.642 25.4275C117.224 25.4275 116.841 25.3702 116.498 25.2599C114.927 24.7555 114.03 23.2459 114.288 21.6096C114.606 19.5948 116.264 18.1109 118.383 18.1109Z" fill="white"/>
<path d="M76.8832 14.1647C76.5945 14.1647 76.3892 14.4466 76.4774 14.7212L80.4702 27.1112L76.8599 32.95C76.6847 33.2334 76.8884 33.5995 77.2216 33.5995H81.4886C81.6106 33.5994 81.7306 33.5678 81.8368 33.5079C81.9431 33.4479 82.0321 33.3615 82.0952 33.2571L93.2463 14.8102C93.4175 14.5268 93.213 14.1643 92.8818 14.1643H88.6152C88.492 14.1644 88.3709 14.1966 88.2639 14.2577C88.1569 14.3188 88.0677 14.4067 88.0049 14.5127L83.6157 21.9232L81.3876 14.5677C81.315 14.3283 81.094 14.1643 80.8442 14.1643L76.8832 14.1647Z" fill="#A5A5A5"/>
<path d="M131.739 7.69922C131.46 7.69922 131.222 7.9025 131.179 8.17836L127.943 28.6925C127.931 28.7675 127.936 28.8442 127.956 28.9173C127.977 28.9904 128.013 29.0581 128.062 29.1159C128.112 29.1736 128.173 29.22 128.242 29.2518C128.311 29.2835 128.386 29.3 128.462 29.3H132.298C132.577 29.3 132.815 29.0967 132.859 28.8208L136.094 8.30587C136.105 8.231 136.101 8.15447 136.08 8.08154C136.06 8.00861 136.023 7.94101 135.974 7.88338C135.925 7.82575 135.864 7.77945 135.795 7.74766C135.726 7.71587 135.651 7.69934 135.576 7.69922H131.739Z" fill="white"/>
<path d="M11.7477 7.69922C11.5005 7.69942 11.2616 7.78775 11.0737 7.94833C10.8859 8.10891 10.7614 8.33122 10.7228 8.57531L9.01996 19.3755C9.09935 18.8711 9.53397 18.4994 10.0448 18.4994H15.0347C20.0567 18.4994 24.3181 14.8359 25.0967 9.8712C25.1547 9.50055 25.1875 9.12641 25.195 8.75133C23.9187 8.08213 22.4195 7.69922 20.7768 7.69922H11.7477Z" fill="#393939"/>
<path d="M25.195 8.75171C25.1875 9.12679 25.1547 9.50093 25.0967 9.87158C24.3181 14.8362 20.0563 18.4998 15.0347 18.4998H10.0448C9.53438 18.4998 9.09935 18.8711 9.01996 19.3759L7.45421 29.3004L6.47348 35.5264C6.45434 35.6467 6.46151 35.7697 6.49452 35.887C6.52754 36.0042 6.58561 36.1129 6.66471 36.2055C6.7438 36.2982 6.84205 36.3725 6.95267 36.4235C7.0633 36.4745 7.18367 36.5008 7.30547 36.5008H12.7216C12.9687 36.5006 13.2077 36.4122 13.3955 36.2516C13.5834 36.0911 13.7078 35.8688 13.7464 35.6247L15.173 26.5763C15.2117 26.332 15.3362 26.1096 15.5243 25.949C15.7123 25.7884 15.9514 25.7002 16.1987 25.7002H19.3875C24.4095 25.7002 28.6709 22.0366 29.4495 17.072C30.0024 13.5484 28.2278 10.3419 25.195 8.75171Z" fill="white"/>
<path d="M5.59436 0.500244C5.08394 0.500244 4.64891 0.871531 4.56952 1.37553L0.319359 28.3263C0.238767 28.8379 0.634121 29.3006 1.15216 29.3006H7.4548L9.01975 19.3761L10.7226 8.57592C10.7612 8.33184 10.8857 8.10953 11.0735 7.94895C11.2614 7.78837 11.5003 7.70004 11.7475 7.69983H20.7766C22.4197 7.69983 23.9185 8.08315 25.1948 8.75195C25.2822 4.23195 21.5525 0.500244 16.4246 0.500244H5.59436Z" fill="#A5A5A5"/>
</g>
<defs>
<clipPath id="clip0_1_1038">
<rect width="135.791" height="36" fill="white" transform="translate(0.309143 0.5)"/>
</clipPath>
</defs>
</svg>
