<svg width="20" height="20" viewBox="0 0 20 20" fill="none" xmlns="http://www.w3.org/2000/svg">
<g clip-path="url(#clip0_1_247)">
<path d="M8.69329 2.26197C10.3335 2.26197 11.9735 2.88937 13.2301 4.14586C15.7425 6.6581 15.7425 10.7088 13.2301 13.2217C10.7175 15.734 6.66686 15.734 4.15414 13.2217C1.64286 10.709 1.64286 6.65979 4.15535 4.14731H4.1568C5.41305 2.89083 7.05329 2.26197 8.69329 2.26197ZM8.69329 0.69519C6.64554 0.69519 4.59729 1.4741 3.04068 3.03095V3.03192C-0.0742255 6.14707 -0.0730135 11.2202 3.04068 14.334C5.96747 17.261 10.624 17.4377 13.7592 14.8644L17.9422 19.0462C18.2465 19.3706 18.7604 19.3786 19.0749 19.0637C19.3893 18.7482 19.3806 18.2355 19.0548 17.9311L14.8739 13.7497C17.447 10.6142 17.2717 5.95749 14.3447 3.03095C12.7869 1.47265 10.7403 0.69519 8.69329 0.69519Z" fill="black"/>
</g>
<defs>
<clipPath id="clip0_1_247">
<rect width="20" height="20" fill="white"/>
</clipPath>
</defs>
</svg>
