<svg width="77" height="37" viewBox="0 0 77 37" fill="none" xmlns="http://www.w3.org/2000/svg">
<path fill-rule="evenodd" clip-rule="evenodd" d="M67.5721 18.8478C67.5721 14.7058 65.5658 11.4375 61.7312 11.4375C57.8804 11.4375 55.5505 14.7058 55.5505 18.8155C55.5505 23.6856 58.3011 26.1449 62.2489 26.1449C64.1743 26.1449 65.6305 25.7081 66.7307 25.0932V21.8573C65.6305 22.4074 64.3685 22.7472 62.7667 22.7472C61.1972 22.7472 59.8058 22.1971 59.6278 20.2878H67.5397C67.5397 20.0775 67.5721 19.2362 67.5721 18.8478ZM59.5793 17.3108C59.5793 15.4824 60.6957 14.722 61.715 14.722C62.7019 14.722 63.7536 15.4824 63.7536 17.3108H59.5793Z" fill="white"/>
<path fill-rule="evenodd" clip-rule="evenodd" d="M49.3051 11.4375C47.7195 11.4375 46.7002 12.1818 46.1339 12.6995L45.9235 11.6964H42.364V30.562L46.4089 29.7045L46.4251 25.1256C47.0076 25.5463 47.8651 26.1449 49.2889 26.1449C52.1851 26.1449 54.8224 23.815 54.8224 18.686C54.8062 13.9939 52.1366 11.4375 49.3051 11.4375ZM48.3343 22.5854C47.3797 22.5854 46.8134 22.2456 46.4251 21.8249L46.4089 15.8222C46.8296 15.353 47.4121 15.0294 48.3343 15.0294C49.8067 15.0294 50.826 16.6797 50.826 18.7993C50.826 20.9674 49.8229 22.5854 48.3343 22.5854Z" fill="white"/>
<path fill-rule="evenodd" clip-rule="evenodd" d="M36.7981 10.4829L40.8592 9.6092V6.32471L36.7981 7.18224V10.4829Z" fill="white"/>
<path d="M40.8592 11.7126H36.7981V25.8699H40.8592V11.7126Z" fill="white"/>
<path fill-rule="evenodd" clip-rule="evenodd" d="M32.4458 12.91L32.1869 11.7127H28.6921V25.87H32.737V16.2753C33.6916 15.0295 35.3096 15.256 35.8112 15.434V11.7127C35.2934 11.5185 33.4004 11.1625 32.4458 12.91Z" fill="white"/>
<path fill-rule="evenodd" clip-rule="evenodd" d="M24.3559 8.20166L20.408 9.04301L20.3918 22.003C20.3918 24.3976 22.1878 26.1612 24.5824 26.1612C25.9091 26.1612 26.8799 25.9185 27.4139 25.6273V22.3428C26.8961 22.5531 24.3397 23.2974 24.3397 20.9028V15.159H27.4139V11.7127H24.3397L24.3559 8.20166Z" fill="white"/>
<path fill-rule="evenodd" clip-rule="evenodd" d="M13.4184 15.8222C13.4184 15.1912 13.9361 14.9485 14.7936 14.9485C16.0233 14.9485 17.5766 15.3206 18.8062 15.984V12.1818C17.4633 11.6478 16.1366 11.4375 14.7936 11.4375C11.5091 11.4375 9.32487 13.1526 9.32487 16.0164C9.32487 20.482 15.4732 19.7701 15.4732 21.6955C15.4732 22.4397 14.826 22.6824 13.9199 22.6824C12.577 22.6824 10.862 22.1323 9.50285 21.3881V25.2388C11.0076 25.886 12.5285 26.1611 13.9199 26.1611C17.2853 26.1611 19.599 24.4946 19.599 21.5984C19.5829 16.7768 13.4184 17.6344 13.4184 15.8222Z" fill="white"/>
</svg>
