<svg width="24" height="26" viewBox="0 0 24 26" fill="none" xmlns="http://www.w3.org/2000/svg">
<g clip-path="url(#clip0_1_867)">
<mask id="mask0_1_867" style="mask-type:luminance" maskUnits="userSpaceOnUse" x="0" y="0" width="24" height="25">
<path d="M24 0.969971H0V24.97H24V0.969971Z" fill="white"/>
</mask>
<g mask="url(#mask0_1_867)">
<path d="M12 0.969971C5.373 0.969971 0 6.34297 0 12.97C0 19.597 5.373 24.97 12 24.97C18.627 24.97 24 19.597 24 12.97C24 6.34297 18.627 0.969971 12 0.969971ZM17.894 9.19097L15.924 18.471C15.779 19.129 15.387 19.289 14.84 18.979L11.84 16.769L10.394 18.163C10.3231 18.2547 10.2322 18.329 10.1282 18.3801C10.0242 18.4313 9.90989 18.4579 9.794 18.458H9.789L10.002 15.404L15.562 10.382C15.802 10.169 15.508 10.048 15.189 10.261L8.32 14.587L5.36 13.663C4.72 13.46 4.702 13.023 5.495 12.709L17.061 8.25097C17.599 8.05497 18.067 8.37897 17.893 9.19197L17.894 9.19097Z" fill="white"/>
</g>
</g>
<defs>
<clipPath id="clip0_1_867">
<rect width="24" height="25" fill="white" transform="translate(0 0.469971)"/>
</clipPath>
</defs>
</svg>
