<svg width="24" height="26" viewBox="0 0 24 26" fill="none" xmlns="http://www.w3.org/2000/svg">
<path d="M23.6432 5.90704C22.8082 6.27704 21.9112 6.52705 20.9682 6.64005C21.9412 6.05784 22.6691 5.14151 23.0162 4.06204C22.102 4.60503 21.1015 4.98724 20.0582 5.19205C19.3566 4.44291 18.4273 3.94637 17.4145 3.77952C16.4018 3.61267 15.3623 3.78484 14.4574 4.2693C13.5526 4.75376 12.833 5.52341 12.4103 6.45875C11.9877 7.39409 11.8857 8.44279 12.1202 9.44204C10.2679 9.34904 8.45582 8.86759 6.80162 8.02895C5.14742 7.19031 3.68804 6.01321 2.51819 4.57405C2.11819 5.26405 1.88819 6.06405 1.88819 6.91605C1.88775 7.68304 2.07663 8.43829 2.43807 9.11478C2.79952 9.79127 3.32236 10.3681 3.9602 10.7941C3.22047 10.7705 2.49707 10.5706 1.85019 10.211V10.271C1.85012 11.3468 2.22223 12.3894 2.90338 13.2221C3.58453 14.0547 4.53277 14.626 5.5872 14.8391C4.90098 15.0248 4.18153 15.0521 3.4832 14.9191C3.78069 15.8447 4.36019 16.6541 5.14056 17.234C5.92093 17.8139 6.86311 18.1352 7.8352 18.1531C6.18503 19.4485 4.14708 20.1511 2.04919 20.1481C1.67758 20.1482 1.30627 20.1265 0.937195 20.0831C3.06667 21.4522 5.54554 22.1789 8.0772 22.1761C16.6472 22.1761 21.3322 15.0781 21.3322 8.92204C21.3322 8.72205 21.3272 8.52004 21.3182 8.32004C22.2295 7.66102 23.0161 6.84494 23.6412 5.91004L23.6432 5.90704Z" fill="white"/>
</svg>
